<svg width="75" height="75" viewBox="0 0 75 75" fill="none" xmlns="http://www.w3.org/2000/svg">
<rect width="75" height="75" rx="20" fill="#06C755"/>
<path fill-rule="evenodd" clip-rule="evenodd" d="M38.3787 37.2557H42.5173C42.5173 31.0082 37.2676 25.9492 30.7859 25.9492C26.5474 25.9492 22.8479 28.1148 20.7846 31.3509V25.9492H16.6416L12.5 29.9392H16.6416V48.5621H20.7846V43.1576C19.6887 41.4367 19.0439 39.4198 19.0439 37.2571C19.0439 34.9048 19.9566 32.7611 21.4507 31.1219L21.5627 31.0038C21.7716 30.7821 21.9896 30.5721 22.2166 30.3709L22.3574 30.2484C22.6087 30.0369 22.8721 29.8357 23.1445 29.6505C23.1673 29.6359 23.1854 29.6184 23.2081 29.6038C23.5154 29.3996 23.8333 29.2101 24.1648 29.0394L24.2042 29.0205C24.5024 28.8703 24.8096 28.7361 25.1245 28.6151C25.2199 28.5771 25.3152 28.5451 25.4106 28.513C25.6528 28.4269 25.898 28.3526 26.1478 28.2855C26.2643 28.2548 26.3809 28.2257 26.499 28.1994C26.7503 28.144 27.0046 28.0973 27.2604 28.0609C27.3709 28.0434 27.4799 28.0244 27.5934 28.0098C27.9597 27.9705 28.3306 27.9457 28.7105 27.9457C29.2721 27.9457 29.8201 27.9982 30.356 28.0871C30.4256 28.0988 30.4982 28.1017 30.5648 28.1163C30.6572 28.1338 30.7465 28.1601 30.8373 28.179C31.6396 28.3526 32.404 28.6151 33.1155 28.9665L33.1231 28.9694C33.3849 29.0992 33.6377 29.2378 33.886 29.3909L33.9465 29.4346C34.1736 29.5732 34.3961 29.7219 34.608 29.8809L34.6625 29.9246C34.8744 30.0851 35.0818 30.2528 35.2831 30.4307C35.2983 30.4453 35.3134 30.4628 35.3316 30.4773C35.5269 30.6567 35.7191 30.8419 35.8992 31.0344C35.9204 31.0578 35.9371 31.0811 35.9568 31.1044C36.1323 31.294 36.3004 31.488 36.4563 31.6936C36.5259 31.7811 36.5834 31.8744 36.65 31.9634C36.7515 32.1078 36.8589 32.2478 36.9543 32.3965C37.0497 32.5511 37.1359 32.713 37.2253 32.8719C37.2752 32.9638 37.3327 33.0528 37.3812 33.1476C37.472 33.324 37.5492 33.5078 37.6279 33.693C37.6642 33.7732 37.7036 33.8519 37.7384 33.9365C37.8413 34.1961 37.9322 34.463 38.0109 34.7357C38.0124 34.743 38.0169 34.7503 38.0185 34.7605C38.1804 35.3234 38.2894 35.9067 38.3394 36.5061C38.3666 36.7526 38.3787 37.0019 38.3787 37.2557ZM53.5312 40.5807H46.6225L53.5312 33.9336V40.5807ZM57.6682 40.5807V25.9492H56.9794L38.3363 43.9071H53.5312V48.5665H57.6682V43.9071H62.5V40.5821H57.6697L57.6682 40.5807Z" fill="#686868"/>
<path fill-rule="evenodd" clip-rule="evenodd" d="M38.3349 43.9058L42.0738 40.3052C42.3554 39.3325 42.5174 38.3145 42.5174 37.2558H38.3788C38.3788 41.2954 34.9805 44.5723 30.7844 44.5723C26.5838 44.5723 23.1885 41.2939 23.1885 37.2558C23.1885 33.2162 26.5838 29.9379 30.7844 29.9379C34.7141 29.9379 37.9474 32.8166 38.3379 36.5018C37.9413 31.7156 33.7892 27.9443 28.7106 27.9443C23.3672 27.9443 19.0439 32.1152 19.0439 37.2558C19.0439 43.4989 24.2966 48.5637 30.7844 48.5637C34.6838 48.5637 38.126 46.7262 40.2604 43.9058H38.3349Z" fill="#FF7800"/>
</svg>
