<svg width="75" height="75" viewBox="0 0 75 75" fill="none" xmlns="http://www.w3.org/2000/svg">
<rect width="75" height="75" rx="20" fill="#06C755"/>
<path d="M59.4993 62.9492C54.0086 62.9492 48.4597 61.6638 42.8524 59.0928C37.2451 56.5219 32.07 52.8761 27.3271 48.1553C22.5842 43.4346 18.9273 38.2595 16.3564 32.6301C13.7855 27.0006 12.5 21.4406 12.5 15.9499C12.5 15.0447 12.7739 14.3185 13.3218 13.771C13.8692 13.2232 14.5926 12.9492 15.492 12.9492H26.0638C26.7017 12.9492 27.2489 13.1709 27.7055 13.6141C28.1625 14.0574 28.4796 14.6115 28.6569 15.2763L30.5805 24.6274C30.6279 25.2196 30.5962 25.7788 30.4854 26.3049C30.3746 26.8306 30.1811 27.2376 29.9049 27.5257L23.0053 34.5583C24.0691 36.42 25.2438 38.1819 26.5293 39.8442C27.8147 41.5064 29.2332 43.0911 30.7846 44.5982C32.3803 46.2826 34.0536 47.7896 35.8045 49.1194C37.5554 50.4492 39.3617 51.6239 41.2234 52.6434L48.0718 45.7285C48.4707 45.2852 48.9169 44.986 49.4102 44.8309C49.9036 44.6757 50.3883 44.6425 50.8644 44.7311L60.1064 46.7923C60.7518 46.9696 61.3121 47.3251 61.7872 47.8588C62.2624 48.3929 62.5 48.9904 62.5 49.6513V59.9572C62.5 60.8566 62.2261 61.58 61.6782 62.1274C61.1308 62.6753 60.4045 62.9492 59.4993 62.9492ZM20.6117 30.1035L25.7314 24.9173L24.2048 17.8029H17.4867C17.5754 19.709 17.8524 21.6261 18.3178 23.5543C18.7832 25.4825 19.5479 27.6655 20.6117 30.1035ZM45.8112 55.037C47.5399 55.8349 49.4348 56.4997 51.496 57.0317C53.5572 57.5636 55.6073 57.896 57.6463 58.029V58.0623V51.1806L50.7979 49.7178L45.8112 55.037Z" fill="white"/>
</svg>
