<svg width="75" height="75" viewBox="0 0 75 75" fill="none" xmlns="http://www.w3.org/2000/svg">
<rect width="75" height="75" rx="20" fill="#06C755"/>
<path d="M16.1392 56.9492C15.17 56.9492 14.3213 56.5934 13.593 55.8818C12.8643 55.1706 12.5 54.3418 12.5 53.3953V21.5031C12.5 20.5566 12.8643 19.7278 13.593 19.0166C14.3213 18.305 15.17 17.9492 16.1392 17.9492H58.8608C59.83 17.9492 60.6787 18.305 61.407 19.0166C62.1357 19.7278 62.5 20.5566 62.5 21.5031V53.3953C62.5 54.3418 62.1357 55.1706 61.407 55.8818C60.6787 56.5934 59.83 56.9492 58.8608 56.9492H16.1392ZM37.5 38.4227L16.1392 24.748V53.3953H58.8608V24.748L37.5 38.4227ZM37.5 34.8842L58.576 21.5031H16.4873L37.5 34.8842ZM16.1392 24.748V21.5031V53.3953V24.748Z" fill="#06C755"/>
<path d="M16.1392 56.9492C15.17 56.9492 14.3213 56.5934 13.593 55.8818C12.8643 55.1706 12.5 54.3418 12.5 53.3953V21.5031C12.5 20.5566 12.8643 19.7278 13.593 19.0166C14.3213 18.305 15.17 17.9492 16.1392 17.9492H58.8608C59.83 17.9492 60.6787 18.305 61.407 19.0166C62.1357 19.7278 62.5 20.5566 62.5 21.5031V53.3953C62.5 54.3418 62.1357 55.1706 61.407 55.8818C60.6787 56.5934 59.83 56.9492 58.8608 56.9492H16.1392ZM37.5 38.4227L16.1392 24.748V53.3953H58.8608V24.748L37.5 38.4227ZM37.5 34.8842L58.576 21.5031H16.4873L37.5 34.8842ZM16.1392 24.748V21.5031V53.3953V24.748Z" fill="white"/>
</svg>
